<svg width="156" height="78" viewBox="0 0 156 78" fill="none" xmlns="http://www.w3.org/2000/svg">
<rect width="156" height="78" fill="#1E1E1E"/>
<rect width="156" height="78" fill="black"/>
<path d="M28.976 9.264H20.88V30H18.64V9.264H10.544V7.28H28.976V9.264ZM35.5375 30.32C34.3428 30.32 33.2335 30.096 32.2095 29.648C31.1855 29.1787 30.3002 28.5493 29.5535 27.76C28.8068 26.9493 28.2202 26.0213 27.7935 24.976C27.3882 23.9307 27.1855 22.8107 27.1855 21.616C27.1855 20.0587 27.5375 18.6293 28.2415 17.328C28.9668 16.0267 29.9588 14.992 31.2175 14.224C32.4762 13.4347 33.9055 13.04 35.5055 13.04C37.1482 13.04 38.5775 13.4347 39.7935 14.224C41.0308 15.0133 42.0015 16.0587 42.7055 17.36C43.4095 18.64 43.7615 20.048 43.7615 21.584C43.7615 21.7547 43.7615 21.9253 43.7615 22.096C43.7615 22.2453 43.7508 22.3627 43.7295 22.448H29.4575C29.5642 23.6427 29.8948 24.7093 30.4495 25.648C31.0255 26.5653 31.7615 27.3013 32.6575 27.856C33.5748 28.3893 34.5668 28.656 35.6335 28.656C36.7215 28.656 37.7455 28.3787 38.7055 27.824C39.6868 27.2693 40.3695 26.544 40.7535 25.648L42.6415 26.16C42.3002 26.9493 41.7775 27.664 41.0735 28.304C40.3695 28.944 39.5375 29.4453 38.5775 29.808C37.6388 30.1493 36.6255 30.32 35.5375 30.32ZM29.3935 20.88H41.7135C41.6282 19.664 41.2975 18.5973 40.7215 17.68C40.1668 16.7627 39.4308 16.048 38.5135 15.536C37.6175 15.0027 36.6255 14.736 35.5375 14.736C34.4495 14.736 33.4575 15.0027 32.5615 15.536C31.6655 16.048 30.9295 16.7733 30.3535 17.712C29.7988 18.6293 29.4788 19.6853 29.3935 20.88ZM54.3508 30.32C53.1348 30.32 52.0148 30.096 50.9908 29.648C49.9881 29.1787 49.1028 28.5387 48.3348 27.728C47.5881 26.9173 47.0014 25.9893 46.5748 24.944C46.1694 23.8987 45.9668 22.7893 45.9668 21.616C45.9668 20.0373 46.3188 18.5973 47.0228 17.296C47.7268 15.9947 48.7081 14.96 49.9668 14.192C51.2254 13.424 52.6761 13.04 54.3188 13.04C55.8761 13.04 57.2521 13.4027 58.4468 14.128C59.6414 14.832 60.5268 15.792 61.1028 17.008L58.9908 17.68C58.5214 16.8267 57.8601 16.1653 57.0068 15.696C56.1748 15.2053 55.2468 14.96 54.2228 14.96C53.1134 14.96 52.1001 15.248 51.1828 15.824C50.2654 16.4 49.5294 17.1893 48.9748 18.192C48.4414 19.1947 48.1748 20.336 48.1748 21.616C48.1748 22.8747 48.4521 24.016 49.0068 25.04C49.5614 26.064 50.2974 26.8853 51.2148 27.504C52.1321 28.1013 53.1454 28.4 54.2548 28.4C54.9801 28.4 55.6734 28.272 56.3348 28.016C57.0174 27.76 57.6041 27.4187 58.0948 26.992C58.6068 26.544 58.9481 26.064 59.1188 25.552L61.2628 26.192C60.9641 26.9813 60.4628 27.696 59.7588 28.336C59.0761 28.9547 58.2654 29.4453 57.3268 29.808C56.4094 30.1493 55.4174 30.32 54.3508 30.32ZM78.6973 30H76.5213V20.688C76.5213 18.8107 76.1906 17.4027 75.5293 16.464C74.8679 15.504 73.9186 15.024 72.6813 15.024C71.8706 15.024 71.0599 15.2373 70.2493 15.664C69.4599 16.0693 68.7559 16.6347 68.1373 17.36C67.5399 18.064 67.1133 18.8747 66.8573 19.792V30H64.6813V6.64H66.8573V17.104C67.5186 15.8667 68.4359 14.8853 69.6093 14.16C70.8039 13.4133 72.0733 13.04 73.4173 13.04C74.3773 13.04 75.1879 13.2107 75.8493 13.552C76.5319 13.8933 77.0759 14.3947 77.4813 15.056C77.9079 15.696 78.2173 16.4533 78.4093 17.328C78.6013 18.1813 78.6973 19.152 78.6973 20.24V30Z" fill="#00534E"/>
<path d="M83.7855 30V7.28H86.0255V28.016H99.1455V30H83.7855ZM101.994 30V13.328H104.17V30H101.994ZM101.994 9.84V6.64H104.17V9.84H101.994ZM122.979 30H120.803V20.688C120.803 18.7253 120.515 17.296 119.939 16.4C119.363 15.4827 118.456 15.024 117.219 15.024C116.365 15.024 115.523 15.2373 114.691 15.664C113.859 16.0693 113.123 16.6347 112.483 17.36C111.864 18.064 111.416 18.8747 111.139 19.792V30H108.963V13.328H110.947V17.104C111.395 16.2933 111.981 15.5893 112.707 14.992C113.432 14.3733 114.253 13.8933 115.171 13.552C116.088 13.2107 117.037 13.04 118.019 13.04C118.936 13.04 119.715 13.2107 120.355 13.552C120.995 13.8933 121.507 14.384 121.891 15.024C122.275 15.6427 122.552 16.4 122.722 17.296C122.893 18.1707 122.979 19.152 122.979 20.24V30ZM139.523 30L133.347 21.456L129.795 24.784V30H127.619V6.64H129.795V22.448L139.235 13.36H141.635L134.819 20.176L141.891 30H139.523Z" fill="#00BBB0"/>
<path d="M26.128 49.536C25.808 49.1733 25.4347 48.8533 25.008 48.576C24.5813 48.2773 24.1013 48.0213 23.568 47.808C23.0347 47.5947 22.4587 47.424 21.84 47.296C21.2427 47.168 20.6027 47.104 19.92 47.104C17.936 47.104 16.4747 47.488 15.536 48.256C14.6187 49.0027 14.16 50.0267 14.16 51.328C14.16 52.224 14.3733 52.928 14.8 53.44C15.248 53.952 15.9413 54.368 16.88 54.688C17.8187 55.008 19.0133 55.3387 20.464 55.68C22.0853 56.0213 23.4827 56.4267 24.656 56.896C25.8293 57.3653 26.736 58.0053 27.376 58.816C28.016 59.6053 28.336 60.6827 28.336 62.048C28.336 63.0933 28.1333 64 27.728 64.768C27.3227 65.536 26.7573 66.176 26.032 66.688C25.3067 67.2 24.4427 67.584 23.44 67.84C22.4373 68.0747 21.3387 68.192 20.144 68.192C18.9707 68.192 17.84 68.0747 16.752 67.84C15.6853 67.584 14.672 67.2213 13.712 66.752C12.752 66.2613 11.856 65.6427 11.024 64.896L12.144 63.072C12.5493 63.4987 13.0293 63.904 13.584 64.288C14.16 64.6507 14.7893 64.9813 15.472 65.28C16.176 65.5787 16.9227 65.8133 17.712 65.984C18.5227 66.1333 19.3547 66.208 20.208 66.208C22.0213 66.208 23.4293 65.8773 24.432 65.216C25.456 64.5547 25.968 63.5733 25.968 62.272C25.968 61.3333 25.712 60.5867 25.2 60.032C24.688 59.456 23.92 58.9867 22.896 58.624C21.872 58.2613 20.6133 57.9093 19.12 57.568C17.5413 57.2053 16.208 56.8 15.12 56.352C14.032 55.904 13.2107 55.3173 12.656 54.592C12.1227 53.8453 11.856 52.864 11.856 51.648C11.856 50.24 12.1973 49.056 12.88 48.096C13.584 47.1147 14.544 46.3787 15.76 45.888C16.976 45.376 18.3733 45.12 19.952 45.12C20.9547 45.12 21.8827 45.2267 22.736 45.44C23.6107 45.632 24.4107 45.92 25.136 46.304C25.8827 46.688 26.576 47.168 27.216 47.744L26.128 49.536ZM38.9415 68.32C37.7468 68.32 36.6375 68.096 35.6135 67.648C34.6108 67.1787 33.7362 66.5493 32.9895 65.76C32.2642 64.9493 31.6988 64.032 31.2935 63.008C30.8882 61.9627 30.6855 60.864 30.6855 59.712C30.6855 58.5173 30.8882 57.408 31.2935 56.384C31.6988 55.3387 32.2748 54.4213 33.0215 53.632C33.7682 52.8213 34.6428 52.192 35.6455 51.744C36.6695 51.2747 37.7788 51.04 38.9735 51.04C40.1682 51.04 41.2668 51.2747 42.2695 51.744C43.2722 52.192 44.1468 52.8213 44.8935 53.632C45.6402 54.4213 46.2162 55.3387 46.6215 56.384C47.0268 57.408 47.2295 58.5173 47.2295 59.712C47.2295 60.864 47.0268 61.9627 46.6215 63.008C46.2162 64.032 45.6402 64.9493 44.8935 65.76C44.1682 66.5493 43.2935 67.1787 42.2695 67.648C41.2668 68.096 40.1575 68.32 38.9415 68.32ZM32.8935 59.744C32.8935 60.9813 33.1602 62.112 33.6935 63.136C34.2482 64.1387 34.9842 64.9387 35.9015 65.536C36.8188 66.112 37.8322 66.4 38.9415 66.4C40.0508 66.4 41.0642 66.1013 41.9815 65.504C42.8988 64.9067 43.6348 64.096 44.1895 63.072C44.7442 62.0267 45.0215 60.896 45.0215 59.68C45.0215 58.4427 44.7442 57.312 44.1895 56.288C43.6348 55.264 42.8988 54.4533 41.9815 53.856C41.0642 53.2587 40.0508 52.96 38.9415 52.96C37.8322 52.96 36.8188 53.2693 35.9015 53.888C35.0055 54.5067 34.2802 55.328 33.7255 56.352C33.1708 57.3547 32.8935 58.4853 32.8935 59.744ZM50.9648 44.64H53.1408V64.224C53.1408 65.056 53.2901 65.6 53.5888 65.856C53.8874 66.112 54.2501 66.24 54.6768 66.24C55.0608 66.24 55.4448 66.1973 55.8288 66.112C56.2128 66.0267 56.5434 65.9413 56.8208 65.856L57.2048 67.616C56.7994 67.7867 56.2981 67.9253 55.7008 68.032C55.1248 68.1387 54.6234 68.192 54.1968 68.192C53.2154 68.192 52.4261 67.904 51.8288 67.328C51.2528 66.752 50.9648 65.9627 50.9648 64.96V44.64ZM59.4275 61.12V51.328H61.6035V60.736C61.6035 62.6347 61.9235 64.0533 62.5635 64.992C63.2248 65.9307 64.1955 66.4 65.4755 66.4C66.3288 66.4 67.1502 66.2187 67.9395 65.856C68.7502 65.472 69.4648 64.9387 70.0835 64.256C70.7022 63.552 71.1715 62.7413 71.4915 61.824V51.328H73.6675V65.376C73.6675 65.6747 73.7315 65.8987 73.8595 66.048C73.9875 66.176 74.1795 66.2507 74.4355 66.272V68C74.1795 68.0213 73.9768 68.032 73.8275 68.032C73.6782 68.0533 73.5395 68.064 73.4115 68.064C72.9848 68.0213 72.6115 67.8507 72.2915 67.552C71.9928 67.2533 71.8328 66.8907 71.8115 66.464L71.7475 64.224C71.0222 65.504 70.0302 66.5067 68.7715 67.232C67.5342 67.9573 66.1902 68.32 64.7395 68.32C62.9902 68.32 61.6675 67.712 60.7715 66.496C59.8755 65.28 59.4275 63.488 59.4275 61.12ZM86.5875 67.2C86.4168 67.264 86.1502 67.3813 85.7875 67.552C85.4248 67.7227 84.9875 67.872 84.4755 68C83.9635 68.128 83.4088 68.192 82.8115 68.192C82.1928 68.192 81.6062 68.0747 81.0515 67.84C80.5182 67.6053 80.0915 67.2533 79.7715 66.784C79.4515 66.2933 79.2915 65.696 79.2915 64.992V53.056H76.9875V51.328H79.2915V45.696H81.4675V51.328H85.3075V53.056H81.4675V64.384C81.5102 64.9813 81.7235 65.4293 82.1075 65.728C82.5128 66.0267 82.9715 66.176 83.4835 66.176C84.0808 66.176 84.6248 66.08 85.1155 65.888C85.6062 65.6747 85.9048 65.5253 86.0115 65.44L86.5875 67.2ZM89.3063 68V51.328H91.4823V68H89.3063ZM89.3063 47.84V44.64H91.4823V47.84H89.3063ZM103.379 68.32C102.184 68.32 101.075 68.096 100.051 67.648C99.0483 67.1787 98.1737 66.5493 97.427 65.76C96.7017 64.9493 96.1363 64.032 95.731 63.008C95.3257 61.9627 95.123 60.864 95.123 59.712C95.123 58.5173 95.3257 57.408 95.731 56.384C96.1363 55.3387 96.7123 54.4213 97.459 53.632C98.2057 52.8213 99.0803 52.192 100.083 51.744C101.107 51.2747 102.216 51.04 103.411 51.04C104.606 51.04 105.704 51.2747 106.707 51.744C107.71 52.192 108.584 52.8213 109.331 53.632C110.078 54.4213 110.654 55.3387 111.059 56.384C111.464 57.408 111.667 58.5173 111.667 59.712C111.667 60.864 111.464 61.9627 111.059 63.008C110.654 64.032 110.078 64.9493 109.331 65.76C108.606 66.5493 107.731 67.1787 106.707 67.648C105.704 68.096 104.595 68.32 103.379 68.32ZM97.331 59.744C97.331 60.9813 97.5977 62.112 98.131 63.136C98.6857 64.1387 99.4217 64.9387 100.339 65.536C101.256 66.112 102.27 66.4 103.379 66.4C104.488 66.4 105.502 66.1013 106.419 65.504C107.336 64.9067 108.072 64.096 108.627 63.072C109.182 62.0267 109.459 60.896 109.459 59.68C109.459 58.4427 109.182 57.312 108.627 56.288C108.072 55.264 107.336 54.4533 106.419 53.856C105.502 53.2587 104.488 52.96 103.379 52.96C102.27 52.96 101.256 53.2693 100.339 53.888C99.443 54.5067 98.7177 55.328 98.163 56.352C97.6083 57.3547 97.331 58.4853 97.331 59.744ZM129.322 68H127.146V58.688C127.146 56.7253 126.858 55.296 126.282 54.4C125.706 53.4827 124.8 53.024 123.562 53.024C122.709 53.024 121.866 53.2373 121.034 53.664C120.202 54.0693 119.466 54.6347 118.826 55.36C118.208 56.064 117.76 56.8747 117.482 57.792V68H115.306V51.328H117.29V55.104C117.738 54.2933 118.325 53.5893 119.05 52.992C119.776 52.3733 120.597 51.8933 121.514 51.552C122.432 51.2107 123.381 51.04 124.362 51.04C125.28 51.04 126.058 51.2107 126.698 51.552C127.338 51.8933 127.85 52.384 128.234 53.024C128.618 53.6427 128.896 54.4 129.066 55.296C129.237 56.1707 129.322 57.152 129.322 58.24V68ZM139.435 68.32C138.069 68.32 136.8 68.096 135.627 67.648C134.453 67.2 133.44 66.5173 132.587 65.6L133.483 64.064C134.421 64.9387 135.36 65.5787 136.299 65.984C137.259 66.368 138.272 66.56 139.339 66.56C140.64 66.56 141.696 66.304 142.507 65.792C143.317 65.2587 143.723 64.5013 143.723 63.52C143.723 62.8587 143.52 62.3573 143.115 62.016C142.731 61.6533 142.165 61.3653 141.419 61.152C140.693 60.9173 139.819 60.672 138.795 60.416C137.643 60.096 136.672 59.7653 135.883 59.424C135.115 59.0613 134.528 58.6133 134.123 58.08C133.739 57.5253 133.547 56.8107 133.547 55.936C133.547 54.848 133.813 53.952 134.347 53.248C134.901 52.5227 135.648 51.9787 136.587 51.616C137.547 51.232 138.613 51.04 139.786 51.04C141.067 51.04 142.197 51.2427 143.179 51.648C144.16 52.0533 144.96 52.6187 145.579 53.344L144.523 54.816C143.925 54.1333 143.211 53.632 142.379 53.312C141.568 52.9707 140.661 52.8 139.659 52.8C138.976 52.8 138.325 52.896 137.707 53.088C137.088 53.2587 136.576 53.5573 136.171 53.984C135.787 54.3893 135.595 54.9547 135.595 55.68C135.595 56.2773 135.744 56.7467 136.043 57.088C136.341 57.408 136.789 57.6853 137.387 57.92C137.984 58.1333 138.72 58.368 139.595 58.624C140.853 58.9653 141.952 59.3173 142.891 59.68C143.829 60.0213 144.555 60.4693 145.067 61.024C145.579 61.5787 145.835 62.3573 145.835 63.36C145.835 64.9173 145.248 66.1333 144.075 67.008C142.901 67.8827 141.355 68.32 139.435 68.32Z" fill="white"/>
</svg>
